# xmcd CD database file
# Copyright (C) 1997 Ti Kan
# 
# Track frame offsets:
#     150
#     13775
#     26720
#     39650
#     52977
#     64950
#     78532
#     91602
#     102920
#     115857
#     129300
#     141345
#     153107
#     164962
#     175280
#     187777
#     198087
#     208155
# 
# Disc length: 2932 seconds
# 
# Revision: 1
# Processed by: cddbd v1.4b41PL1 Copyright (c) Steve Scherf et al.
# Submitted via: DiscPlay 4.0.4
# 
DISCID=f30b7212
DTITLE=Robert Johnson - Red Hot Blues
DYEAR=1900
DGENRE=
TTITLE0=Sweet Home Chicago
TTITLE1=Ramblin' On My Mind
TTITLE2=Kind Hearted Woman Blues
TTITLE3=I Believe I'll Dust My Broom
TTITLE4=When You Got A Good Friend
TTITLE5=Terraplane Blues
TTITLE6=32-20 Blues
TTITLE7=Walkin' Blues
TTITLE8=Preachin' Blues
TTITLE9=They're Red Hot
TTITLE10=Phonograph Blues
TTITLE11=If I Had Possession Over Judgement Day
TTITLE12=I'm A Steady Rollin' Man
TTITLE13=Stop Breakin' Down Blues
TTITLE14=Travelling Riverside Blues
TTITLE15=Milkcow's Calf Blues
TTITLE16=Little Queen Of Spades
TTITLE17=Me And The Devil Blues
EXTD=
EXTT0=
EXTT1=
EXTT2=
EXTT3=
EXTT4=
EXTT5=
EXTT6=
EXTT7=
EXTT8=
EXTT9=
EXTT10=
EXTT11=
EXTT12=
EXTT13=
EXTT14=
EXTT15=
EXTT16=
EXTT17=
PLAYORDER=
